<svg xmlns="http://www.w3.org/2000/svg" version="1.1" xmlns:xlink="http://www.w3.org/1999/xlink" xmlns:svgjs="http://svgjs.dev/svgjs" width="1500" height="1500" viewBox="0 0 1500 1500"><rect width="1500" height="1500" fill="#ffffff"></rect><g transform="matrix(0.6666666666666666,0,0,0.6666666666666666,249.39393939393938,581.2731208295228)"><svg viewBox="0 0 396 134" data-background-color="#ffffff" preserveAspectRatio="xMidYMid meet" height="507" width="1500" xmlns="http://www.w3.org/2000/svg" xmlns:xlink="http://www.w3.org/1999/xlink"><g id="tight-bounds" transform="matrix(1,0,0,1,0.2400000000000091,-0.10827867205932762)"><svg viewBox="0 0 395.52 134.21650918438618" height="134.21650918438618" width="395.52"><g><svg viewBox="0 0 667.9750338860006 226.67191866530408" height="134.21650918438618" width="395.52"><g transform="matrix(1,0,0,1,272.4550338860006,64.85250991308321)"><svg viewBox="0 0 395.52 96.96689883913766" height="96.96689883913766" width="395.52"><g id="textblocktransform"><svg viewBox="0 0 395.52 96.96689883913766" height="96.96689883913766" width="395.52" id="textblock"><g><svg viewBox="0 0 395.52 96.96689883913766" height="96.96689883913766" width="395.52"><g transform="matrix(1,0,0,1,0,0)"><svg width="395.52" viewBox="1.1 -35.1 180.88 44.35" height="96.96689883913766" data-palette-color="#000000"><path d="M23.15-32.05L23.45-31.65 23.15-28.55 17.55-28.85 14.3-28.85 14.15-10 14.3 0 10.25 0 10.55-9.65 10.3-28.85 7.05-28.85 1.35-28.55 1.1-28.95 1.4-32.05 23.15-32.05ZM33.75-23.3Q38.4-23.3 40.97-20.28 43.55-17.25 43.55-11.75L43.55-11.75Q43.55-5.95 40.85-2.78 38.15 0.4 33.15 0.4L33.15 0.4Q28.45 0.4 25.87-2.63 23.3-5.65 23.3-11.15L23.3-11.15Q23.3-16.95 26.02-20.13 28.75-23.3 33.75-23.3L33.75-23.3ZM33.5-20.5Q30.35-20.5 28.7-18.35 27.05-16.2 27.05-12.05L27.05-12.05Q27.05-7.25 28.67-4.85 30.3-2.45 33.4-2.45L33.4-2.45Q36.55-2.45 38.2-4.55 39.85-6.65 39.85-10.85L39.85-10.85Q39.85-15.6 38.22-18.05 36.6-20.5 33.5-20.5L33.5-20.5ZM60.15-23.15Q64.45-23.15 66.75-20.3 69.05-17.45 69.05-12.15L69.05-12.15Q69.05-6.15 66.15-2.88 63.25 0.4 57.9 0.4L57.9 0.4Q55.8 0.4 53.55-0.05L53.55-0.05 53.65 9.25 49.75 9.25 50-9.7 49.75-22.65 53.55-23 53.5-19.75 53.85-19.75Q55.6-21.2 57-21.95 58.4-22.7 60.15-23.15L60.15-23.15ZM58.4-2.5Q61.7-2.5 63.5-4.8 65.3-7.1 65.3-11.35L65.3-11.35Q65.3-15.5 63.87-17.7 62.45-19.9 59.8-19.9L59.8-19.9Q58.25-19.9 56.72-19.05 55.2-18.2 53.5-16.4L53.5-16.4 53.45-10.05 53.5-3.8Q55.95-2.5 58.4-2.5L58.4-2.5ZM93.74-28.7L88.14-28.6 88.04-17.45 93.44-17.35 98.64-17.5 98.94-17.1 98.59-14.05 93.04-14.2 87.99-14.15 87.94-10 88.14 0 84.09 0 84.34-9.65 84.09-32.05 101.14-32.05 101.44-31.65 101.09-28.45 93.74-28.7ZM105.19 0L105.39-9.7 105.24-22.65 109.09-23 108.99-10.05 109.09 0 105.19 0ZM107.24-33.15Q108.24-33.15 108.84-32.55 109.44-31.95 109.44-30.9L109.44-30.9Q109.44-29.8 108.81-29.15 108.19-28.5 107.09-28.5L107.09-28.5Q106.04-28.5 105.46-29.1 104.89-29.7 104.89-30.8L104.89-30.8Q104.89-31.85 105.51-32.5 106.14-33.15 107.24-33.15L107.24-33.15ZM121.44-35.1L121.14-10.05 121.39 0 117.44 0 117.74-9.75 117.49-34.75 121.44-35.1ZM157.98 0L158.23-15.55Q158.28-17.6 157.28-18.75 156.28-19.9 154.33-19.9L154.33-19.9Q151.13-19.9 147.68-16.45L147.68-16.45 147.58-9.95 147.78 0 143.73 0 144.03-15.55Q144.08-17.6 143.08-18.75 142.08-19.9 140.13-19.9L140.13-19.9Q136.98-19.9 133.33-16.35L133.33-16.35 133.33-10.05 133.53 0 129.58 0 129.83-9.7 129.63-22.65 133.38-23 133.38-19.65 133.68-19.65Q136.78-22.4 140.03-23.2L140.03-23.2Q142.83-23.2 144.63-22.23 146.43-21.25 147.18-19.4L147.18-19.4 147.48-19.4Q150.63-22.25 154.23-23.2L154.23-23.2Q158.03-23.2 159.98-21.45 161.93-19.7 161.88-16.45L161.88-16.45 161.78-9.95 161.98 0 157.98 0ZM175.83-23.25Q178.68-23.25 181.33-22.15L181.33-22.15 180.78-18.9 180.18-18.75Q177.68-20.4 175.38-20.4L175.38-20.4Q173.68-20.4 172.63-19.45 171.58-18.5 171.58-17.15L171.58-17.15Q171.58-15.8 172.66-14.98 173.73-14.15 175.98-13.1L175.98-13.1Q177.93-12.2 179.11-11.48 180.28-10.75 181.13-9.55 181.98-8.35 181.98-6.6L181.98-6.6Q181.98-4.75 181.03-3.15 180.08-1.55 178.23-0.58 176.38 0.4 173.83 0.4L173.83 0.4Q170.33 0.4 167.18-1.25L167.18-1.25 167.68-4.65 168.13-4.95Q169.53-3.75 171.16-3.1 172.78-2.45 174.23-2.45L174.23-2.45Q176.08-2.45 177.23-3.48 178.38-4.5 178.38-5.9L178.38-5.9Q178.38-7.25 177.31-8.08 176.23-8.9 173.98-9.95L173.98-9.95Q172.03-10.85 170.83-11.58 169.63-12.3 168.78-13.55 167.93-14.8 167.93-16.65L167.93-16.65Q167.93-19.55 170.06-21.4 172.18-23.25 175.83-23.25L175.83-23.25Z" opacity="1" transform="matrix(1,0,0,1,0,0)" fill="#000000" class="wordmark-text-0" data-fill-palette-color="primary" id="text-0"></path></svg></g></svg></g></svg></g></svg></g><g><svg viewBox="0 0 226.67191866530408 226.67191866530408" height="226.67191866530408" width="226.67191866530408"><g><svg></svg></g><g id="icon-0"><svg viewBox="0 0 226.67191866530408 226.67191866530408" height="226.67191866530408" width="226.67191866530408"><g><path d="M0 113.336c0-62.594 50.742-113.336 113.336-113.336 62.594 0 113.336 50.742 113.336 113.336 0 62.594-50.742 113.336-113.336 113.336-62.594 0-113.336-50.742-113.336-113.336zM113.336 217.927c57.764 0 104.591-46.827 104.591-104.591 0-57.764-46.827-104.591-104.591-104.591-57.764 0-104.591 46.827-104.591 104.591 0 57.764 46.827 104.591 104.591 104.591z" data-fill-palette-color="accent" fill="#000000" stroke="transparent"></path></g><g transform="matrix(1,0,0,1,48.35396530252308,82.87629945096938)"><svg viewBox="0 0 129.96398806025792 60.919319763365294" height="60.919319763365294" width="129.96398806025792"><g><svg xmlns="http://www.w3.org/2000/svg" xmlns:xlink="http://www.w3.org/1999/xlink" version="1.0" x="0" y="0" viewBox="0 0 100 46.873999999999995" enable-background="new 0 0 100 46.875" xml:space="preserve" width="129.96398806025792" height="60.919319763365294" class="icon-cg-0" data-fill-palette-color="accent" id="cg-0"><g fill="#000000" data-fill-palette-color="accent"><path d="M100 7.812V0H0v3.906 3.906 31.25 3.906 3.906h100v-7.812H53.125V7.812H100zM95.156 2.37c0-0.446 0.361-0.808 0.808-0.808h3.071c0.445 0 0.808 0.362 0.808 0.808v3.071c0 0.446-0.362 0.808-0.808 0.808h-3.071c-0.446 0-0.808-0.362-0.808-0.808V2.37zM86.719 2.37c0-0.446 0.362-0.808 0.809-0.808h3.07c0.446 0 0.809 0.362 0.809 0.808v3.071c0 0.446-0.362 0.808-0.809 0.808h-3.07c-0.446 0-0.809-0.362-0.809-0.808V2.37zM78.281 2.37c0-0.446 0.361-0.808 0.808-0.808h3.071c0.445 0 0.808 0.362 0.808 0.808v3.071c0 0.446-0.362 0.808-0.808 0.808h-3.071c-0.446 0-0.808-0.362-0.808-0.808V2.37zM69.844 2.37c0-0.446 0.362-0.808 0.809-0.808h3.07c0.446 0 0.809 0.362 0.809 0.808v3.071c0 0.446-0.362 0.808-0.809 0.808h-3.07c-0.446 0-0.809-0.362-0.809-0.808V2.37zM61.406 2.37c0-0.446 0.361-0.808 0.808-0.808h3.071c0.445 0 0.808 0.362 0.808 0.808v3.071c0 0.446-0.362 0.808-0.808 0.808h-3.071c-0.446 0-0.808-0.362-0.808-0.808V2.37zM45.156 2.37c0-0.446 0.362-0.808 0.808-0.808h3.071c0.446 0 0.808 0.362 0.808 0.808v3.071c0 0.446-0.362 0.808-0.808 0.808h-3.071c-0.446 0-0.808-0.362-0.808-0.808V2.37zM36.719 2.37c0-0.446 0.362-0.808 0.808-0.808h3.071c0.446 0 0.808 0.362 0.808 0.808v3.071c0 0.446-0.362 0.808-0.808 0.808h-3.071c-0.446 0-0.808-0.362-0.808-0.808V2.37zM28.281 2.37c0-0.446 0.362-0.808 0.808-0.808h3.071c0.446 0 0.808 0.362 0.808 0.808v3.071c0 0.446-0.362 0.808-0.808 0.808h-3.071c-0.446 0-0.808-0.362-0.808-0.808V2.37zM19.844 2.37c0-0.446 0.362-0.808 0.808-0.808h3.071c0.446 0 0.808 0.362 0.808 0.808v3.071c0 0.446-0.362 0.808-0.808 0.808h-3.071c-0.446 0-0.808-0.362-0.808-0.808V2.37zM11.406 2.37c0-0.446 0.362-0.808 0.808-0.808h3.071c0.446 0 0.808 0.362 0.808 0.808v3.071c0 0.446-0.362 0.808-0.808 0.808h-3.071c-0.446 0-0.808-0.362-0.808-0.808V2.37zM2.969 2.37c0-0.446 0.362-0.808 0.808-0.808h3.071c0.446 0 0.808 0.362 0.808 0.808v3.071c0 0.446-0.362 0.808-0.808 0.808H3.777c-0.446 0-0.808-0.362-0.808-0.808V2.37zM7.656 44.504c0 0.447-0.362 0.809-0.808 0.809H3.777c-0.446 0-0.808-0.361-0.808-0.809v-3.07c0-0.447 0.362-0.809 0.808-0.809h3.071c0.446 0 0.808 0.361 0.808 0.809V44.504zM16.094 44.504c0 0.447-0.362 0.809-0.808 0.809h-3.071c-0.446 0-0.808-0.361-0.808-0.809v-3.07c0-0.447 0.362-0.809 0.808-0.809h3.071c0.446 0 0.808 0.361 0.808 0.809V44.504zM24.531 44.504c0 0.447-0.362 0.809-0.808 0.809h-3.071c-0.446 0-0.808-0.361-0.808-0.809v-3.07c0-0.447 0.362-0.809 0.808-0.809h3.071c0.446 0 0.808 0.361 0.808 0.809V44.504zM32.969 44.504c0 0.447-0.362 0.809-0.808 0.809H29.09c-0.446 0-0.808-0.361-0.808-0.809v-3.07c0-0.447 0.362-0.809 0.808-0.809h3.071c0.446 0 0.808 0.361 0.808 0.809V44.504zM41.406 44.504c0 0.447-0.362 0.809-0.808 0.809h-3.071c-0.446 0-0.808-0.361-0.808-0.809v-3.07c0-0.447 0.362-0.809 0.808-0.809h3.071c0.446 0 0.808 0.361 0.808 0.809V44.504zM49.844 44.504c0 0.447-0.362 0.809-0.808 0.809h-3.071c-0.446 0-0.808-0.361-0.808-0.809v-3.07c0-0.447 0.362-0.809 0.808-0.809h3.071c0.446 0 0.808 0.361 0.808 0.809V44.504zM50 39.062H3.125V7.812H50V39.062zM95.156 41.434c0-0.447 0.361-0.809 0.808-0.809h3.071c0.445 0 0.808 0.361 0.808 0.809v3.07c0 0.447-0.362 0.809-0.808 0.809h-3.071c-0.446 0-0.808-0.361-0.808-0.809V41.434zM86.719 41.434c0-0.447 0.362-0.809 0.809-0.809h3.07c0.446 0 0.809 0.361 0.809 0.809v3.07c0 0.447-0.362 0.809-0.809 0.809h-3.07c-0.446 0-0.809-0.361-0.809-0.809V41.434zM78.281 41.434c0-0.447 0.361-0.809 0.808-0.809h3.071c0.445 0 0.808 0.361 0.808 0.809v3.07c0 0.447-0.362 0.809-0.808 0.809h-3.071c-0.446 0-0.808-0.361-0.808-0.809V41.434zM69.844 41.434c0-0.447 0.362-0.809 0.809-0.809h3.07c0.446 0 0.809 0.361 0.809 0.809v3.07c0 0.447-0.362 0.809-0.809 0.809h-3.07c-0.446 0-0.809-0.361-0.809-0.809V41.434zM61.406 41.434c0-0.447 0.361-0.809 0.808-0.809h3.071c0.445 0 0.808 0.361 0.808 0.809v3.07c0 0.447-0.362 0.809-0.808 0.809h-3.071c-0.446 0-0.808-0.361-0.808-0.809V41.434zM53.777 40.625h3.07c0.446 0 0.809 0.361 0.809 0.807v3.072c0 0.445-0.362 0.807-0.809 0.807h-3.07c-0.446 0-0.809-0.361-0.809-0.807v-3.072C52.969 40.986 53.331 40.625 53.777 40.625zM52.969 5.441V2.37c0-0.446 0.362-0.808 0.809-0.808h3.07c0.446 0 0.809 0.362 0.809 0.808v3.071c0 0.446-0.362 0.808-0.809 0.808h-3.07C53.331 6.25 52.969 5.888 52.969 5.441z" fill="#000000" data-fill-palette-color="accent"></path></g></svg></g></svg></g></svg></g></svg></g></svg></g><defs></defs></svg><rect width="395.52" height="134.21650918438618" fill="none" stroke="none" visibility="hidden"></rect></g></svg></g></svg>